<svg width="51" height="39" viewBox="0 0 51 39" fill="none" xmlns="http://www.w3.org/2000/svg">
    <path d="M50.0338 12.6305C50.4223 12.3217 51 12.6105 51 13.0986V33.4688C51 36.1084 48.8584 38.25 46.2188 38.25H4.78125C2.1416 38.25 0 36.1084 0 33.4688V13.1086C0 12.6105 0.567773 12.3316 0.966211 12.6404C3.19746 14.3736 6.15586 16.575 16.316 23.9561C18.4178 25.49 21.9639 28.7174 25.5 28.6975C29.0561 28.7273 32.6719 25.4303 34.6939 23.9561C44.8541 16.575 47.8025 14.3637 50.0338 12.6305ZM25.5 25.5C27.8109 25.5398 31.1379 22.5914 32.8113 21.3762C46.0295 11.7838 47.0355 10.9471 50.0836 8.55645C50.6613 8.1082 51 7.41094 51 6.67383V4.78125C51 2.1416 48.8584 0 46.2188 0H4.78125C2.1416 0 0 2.1416 0 4.78125V6.67383C0 7.41094 0.338672 8.09824 0.916406 8.55645C3.96445 10.9371 4.97051 11.7838 18.1887 21.3762C19.8621 22.5914 23.1891 25.5398 25.5 25.5Z"
          fill="#0075FF"/>
</svg>
