<svg width="51" height="51" viewBox="0 0 51 51" fill="none" xmlns="http://www.w3.org/2000/svg">
    <path d="M25.5 0C11.4133 0 0 11.4133 0 25.5C0 39.5867 11.4133 51 25.5 51C39.5867 51 51 39.5867 51 25.5C51 11.4133 39.5867 0 25.5 0ZM38.0238 17.4696L33.8389 37.1909C33.5304 38.5893 32.6976 38.9286 31.5357 38.2706L25.1607 33.5716L22.0863 36.5329C21.747 36.8722 21.4591 37.1601 20.801 37.1601L21.2534 30.672L33.0677 19.999C33.5819 19.5466 32.9546 19.2895 32.276 19.7419L17.6752 28.9343L11.3825 26.9704C10.0149 26.5385 9.98407 25.6028 11.6704 24.9448L36.2552 15.4645C37.3966 15.0532 38.394 15.7421 38.0238 17.4696Z"
          fill="#0075FF"/>
</svg>
