<svg width="51" height="31" viewBox="0 0 51 31" fill="none" xmlns="http://www.w3.org/2000/svg">
<path d="M49.8377 2.05448C50.188 0.871023 49.8377 0 48.1524 0H42.576C41.1558 0 40.5026 0.747944 40.1523 1.5811C40.1523 1.5811 37.312 8.50194 33.2977 12.9896C32.0006 14.2867 31.4042 14.7033 30.6941 14.7033C30.3438 14.7033 29.8041 14.2867 29.8041 13.1032V2.05448C29.8041 0.634332 29.4065 0 28.2325 0H19.4655C18.5755 0 18.0453 0.662735 18.0453 1.27813C18.0453 2.62254 20.0525 2.93497 20.2608 6.72203V14.9399C20.2608 16.7388 19.9389 17.0702 19.2288 17.0702C17.3353 17.0702 12.734 10.1209 10.0073 2.16809C9.45818 0.624865 8.91852 0 7.48891 0H1.91246C0.3219 0 0 0.747944 0 1.5811C0 3.05805 1.89353 10.3955 8.81438 20.0903C13.4251 26.7082 19.9199 30.2965 25.8277 30.2965C29.3781 30.2965 29.8136 29.5012 29.8136 28.1284C29.8136 21.804 29.4917 21.2075 31.2716 21.2075C32.0953 21.2075 33.5155 21.6241 36.8291 24.8147C40.6162 28.6018 41.2411 30.2965 43.3618 30.2965H48.9383C50.5288 30.2965 51.3336 29.5012 50.8697 27.9296C49.8093 24.6253 42.6423 17.8276 42.3204 17.3731C41.4967 16.3128 41.7334 15.8394 42.3204 14.8926C42.3298 14.8831 49.1371 5.30188 49.8377 2.05448Z" fill="#0075FF"/>
</svg>
